<svg width="18" height="18" viewBox="0 0 18 18" fill="none" xmlns="http://www.w3.org/2000/svg">
<path d="M7.5 6.99975L11.4998 8.99625L7.5 11.0002V6.99975ZM18 3.75V14.25C18 16.3207 16.3215 18 14.25 18H3.75C1.67925 18 0 16.3207 0 14.25V3.75C0 1.67925 1.67925 0 3.75 0H14.25C16.3215 0 18 1.67925 18 3.75ZM15 9C14.985 5.90775 14.7577 4.725 12.8077 4.59225C11.0055 4.46925 6.99225 4.47 5.193 4.59225C3.2445 4.725 3.015 5.9025 3 9C3.015 12.0922 3.24225 13.275 5.19225 13.4078C6.9915 13.53 11.0048 13.5308 12.807 13.4078C14.7555 13.275 14.985 12.0975 15 9Z" fill="white"/>
</svg>
